<?xml version="1.0" encoding="UTF-8" standalone="no"?>
<!DOCTYPE svg PUBLIC "-//W3C//DTD SVG 1.1//EN" "http://www.w3.org/Graphics/SVG/1.1/DTD/svg11.dtd">
<svg version="1.1" xmlns="http://www.w3.org/2000/svg" xmlns:xlink="http://www.w3.org/1999/xlink" preserveAspectRatio="xMidYMid meet" viewBox="0 0 350 108" width="350" height="108"><defs><path d="M0 7.39L7.39 7.39L7.39 72.61L0 72.61L0 7.39Z" id="emhp37HAK"></path><path d="M342.61 0L342.61 7.39L7.39 7.39L7.39 0L342.61 0Z" id="d3yi4qK1oy"></path><path d="M208.33 72.61L208.33 80L7.39 80L7.39 72.61L208.33 72.61Z" id="daU40j5N8"></path><path d="M342.61 7.39L350 7.39L350 72.61L342.61 72.61L342.61 7.39Z" id="e3bLykMlud"></path><path d="M7.39 7.39L342.61 7.39L342.61 72.61L7.39 72.61L7.39 7.39Z" id="a1pZzXTko3"></path><path d="M342.61 72.61L342.61 80L237.89 80L237.89 72.61L342.61 72.61Z" id="en52kXGRO"></path><path d="M215.72 80L215.72 87.39L208.33 87.39L208.33 80L215.72 80Z" id="a6oyqM3cQk"></path><path d="M237.89 72.61L237.89 102.18L230.5 102.18L230.5 72.61L237.89 72.61Z" id="bjaZCSWaX"></path><path d="M223.11 87.39L223.11 94.79L215.72 94.79L215.72 87.39L223.11 87.39Z" id="bPBuznMNu"></path><path d="M230.5 94.79L230.5 102.18L223.11 102.18L223.11 94.79L230.5 94.79Z" id="bY4VFZHZ7"></path><path d="M208.33 72.61L230.5 72.61L230.5 80L208.33 80L208.33 72.61Z" id="aSBysTeCH"></path><path d="M215.72 80L230.5 80L230.5 87.39L215.72 87.39L215.72 80Z" id="d1l01QxGj3"></path><path d="M223.11 87.39L230.5 87.39L230.5 94.79L223.11 94.79L223.11 87.39Z" id="a1oi17uZex"></path></defs><g><g><g><use xlink:href="#emhp37HAK" opacity="1" fill="#000000" fill-opacity="1"></use></g><g><use xlink:href="#d3yi4qK1oy" opacity="1" fill="#000000" fill-opacity="1"></use></g><g><use xlink:href="#daU40j5N8" opacity="1" fill="#000000" fill-opacity="1"></use></g><g><use xlink:href="#e3bLykMlud" opacity="1" fill="#000000" fill-opacity="1"></use></g><g><use xlink:href="#a1pZzXTko3" opacity="1" fill="#ffffff" fill-opacity="1"></use></g><g><use xlink:href="#en52kXGRO" opacity="1" fill="#000000" fill-opacity="1"></use></g><g><use xlink:href="#a6oyqM3cQk" opacity="1" fill="#000000" fill-opacity="1"></use></g><g><use xlink:href="#bjaZCSWaX" opacity="1" fill="#000000" fill-opacity="1"></use></g><g><use xlink:href="#bPBuznMNu" opacity="1" fill="#000000" fill-opacity="1"></use></g><g><use xlink:href="#bY4VFZHZ7" opacity="1" fill="#000000" fill-opacity="1"></use></g><g><use xlink:href="#aSBysTeCH" opacity="1" fill="#ffffff" fill-opacity="1"></use></g><g><use xlink:href="#d1l01QxGj3" opacity="1" fill="#ffffff" fill-opacity="1"></use></g><g><use xlink:href="#a1oi17uZex" opacity="1" fill="#ffffff" fill-opacity="1"></use></g></g></g></svg>